<svg xmlns="http://www.w3.org/2000/svg">
  <!-- ================================================================ -->
  <!-- Tech Luminous — SVG Icon Sprite (stroke-based, currentColor)      -->
  <!-- ================================================================ -->

  <!-- Star / rating -->
  <symbol id="icon-star" viewBox="0 0 24 24">
    <path fill="none" stroke="currentColor" stroke-width="1.5" stroke-linejoin="round"
      d="M12 2l3.09 6.26L22 9.27l-5 4.87 1.18 6.88L12 17.77l-6.18 3.25L7 14.14 2 9.27l6.91-1.01L12 2z"/>
  </symbol>

  <!-- People / students -->
  <symbol id="icon-people" viewBox="0 0 24 24">
    <path fill="none" stroke="currentColor" stroke-width="1.5" stroke-linecap="round" stroke-linejoin="round"
      d="M17 21v-2a4 4 0 00-4-4H5a4 4 0 00-4-4v2"/>
    <circle fill="none" stroke="currentColor" stroke-width="1.5" stroke-linecap="round" cx="9" cy="7" r="4"/>
    <path fill="none" stroke="currentColor" stroke-width="1.5" stroke-linecap="round" stroke-linejoin="round"
      d="M23 21v-2a4 4 0 00-3-3.87M16 3.13a4 4 0 010 7.75"/>
  </symbol>

  <!-- Funding / money -->
  <symbol id="icon-funding" viewBox="0 0 24 24">
    <line x1="12" y1="1" x2="12" y2="23" stroke="currentColor" stroke-width="1.5" stroke-linecap="round"/>
    <path fill="none" stroke="currentColor" stroke-width="1.5" stroke-linecap="round" stroke-linejoin="round"
      d="M17 5H9.5A3.5 3.5 0 006 8.5v0A3.5 3.5 0 009.5 12H14.5a3.5 3.5 0 010 7H6"/>
  </symbol>

  <!-- Ranking / trophy -->
  <symbol id="icon-ranking" viewBox="0 0 24 24">
    <path fill="none" stroke="currentColor" stroke-width="1.5" stroke-linecap="round" stroke-linejoin="round"
      d="M6 9H4a2 2 0 01-2-2V5a2 2 0 012-2h2v6z"/>
    <path fill="none" stroke="currentColor" stroke-width="1.5" stroke-linecap="round" stroke-linejoin="round"
      d="M18 9h2a2 2 0 002-2V5a2 2 0 00-2-2h-2v6z"/>
    <path fill="none" stroke="currentColor" stroke-width="1.5" stroke-linecap="round" stroke-linejoin="round"
      d="M6 9h12v2a6 6 0 01-6 6v0a6 6 0 01-6-6V9z"/>
    <path fill="none" stroke="currentColor" stroke-width="1.5" stroke-linecap="round" d="M12 17v4M8 21h8"/>
  </symbol>

  <!-- Satisfaction / heart -->
  <symbol id="icon-satisfaction" viewBox="0 0 24 24">
    <path fill="none" stroke="currentColor" stroke-width="1.5" stroke-linecap="round" stroke-linejoin="round"
      d="M20.84 4.61a5.5 5.5 0 00-7.78 0L12 5.67l-1.06-1.06a5.5 5.5 0 00-7.78 7.78l1.06 1.06L12 21.23l7.78-7.78 1.06-1.06a5.5 5.5 0 000-7.78v0z"/>
  </symbol>

  <!-- Influence / broadcast -->
  <symbol id="icon-influence" viewBox="0 0 24 24">
    <path fill="none" stroke="currentColor" stroke-width="1.5" stroke-linecap="round" stroke-linejoin="round"
      d="M2 12h2M6 8v8M10 5v14M14 9v6M18 7v10M22 12h-2"/>
  </symbol>

  <!-- News / newspaper -->
  <symbol id="icon-news" viewBox="0 0 24 24">
    <path fill="none" stroke="currentColor" stroke-width="1.5" stroke-linecap="round" stroke-linejoin="round"
      d="M4 11a9 9 0 019 9M4 4a16 16 0 0116 16"/>
    <circle fill="none" stroke="currentColor" stroke-width="1.5" cx="5" cy="19" r="1"/>
  </symbol>

  <!-- Research / science -->
  <symbol id="icon-research" viewBox="0 0 24 24">
    <path fill="none" stroke="currentColor" stroke-width="1.5" stroke-linecap="round" stroke-linejoin="round"
      d="M9 3h6M12 3v5"/>
    <path fill="none" stroke="currentColor" stroke-width="1.5" stroke-linecap="round" stroke-linejoin="round"
      d="M5 8h14a1 1 0 011 1v1a1 1 0 01-1 1H5a1 1 0 01-1-1V9a1 1 0 011-1z"/>
    <rect x="6" y="11" width="12" height="10" rx="1" fill="none" stroke="currentColor" stroke-width="1.5"/>
    <line x1="10" y1="14" x2="14" y2="14" stroke="currentColor" stroke-width="1.5" stroke-linecap="round"/>
    <line x1="10" y1="17" x2="14" y2="17" stroke="currentColor" stroke-width="1.5" stroke-linecap="round"/>
  </symbol>

  <!-- Enterprise / building -->
  <symbol id="icon-enterprise" viewBox="0 0 24 24">
    <rect x="4" y="2" width="16" height="20" rx="1" fill="none" stroke="currentColor" stroke-width="1.5"/>
    <line x1="9" y1="6" x2="9" y2="10" stroke="currentColor" stroke-width="1.5" stroke-linecap="round"/>
    <line x1="15" y1="6" x2="15" y2="10" stroke="currentColor" stroke-width="1.5" stroke-linecap="round"/>
    <line x1="9" y1="14" x2="9" y2="18" stroke="currentColor" stroke-width="1.5" stroke-linecap="round"/>
    <line x1="15" y1="14" x2="15" y2="18" stroke="currentColor" stroke-width="1.5" stroke-linecap="round"/>
    <line x1="4" y1="10" x2="20" y2="10" stroke="currentColor" stroke-width="1.5"/>
  </symbol>

  <!-- Training / education -->
  <symbol id="icon-education" viewBox="0 0 24 24">
    <path fill="none" stroke="currentColor" stroke-width="1.5" stroke-linecap="round" stroke-linejoin="round"
      d="M4 19.5A2.5 2.5 0 016.5 17H20"/>
    <path fill="none" stroke="currentColor" stroke-width="1.5" stroke-linecap="round" stroke-linejoin="round"
      d="M6.5 2H20v20H6.5A2.5 2.5 0 014 19.5V4.5A2.5 2.5 0 016.5 2z"/>
    <line x1="8" y1="7" x2="16" y2="7" stroke="currentColor" stroke-width="1.5" stroke-linecap="round"/>
    <line x1="8" y1="11" x2="14" y2="11" stroke="currentColor" stroke-width="1.5" stroke-linecap="round"/>
  </symbol>

  <!-- Training / workshop -->
  <symbol id="icon-training" viewBox="0 0 24 24">
    <path fill="none" stroke="currentColor" stroke-width="1.5" stroke-linecap="round" stroke-linejoin="round"
      d="M12 2L2 7l10 5 10-5-10-5zM2 17l10 5 10-5M2 12l10 5 10-5"/>
  </symbol>

  <!-- Graduation -->
  <symbol id="icon-graduation" viewBox="0 0 24 24">
    <path fill="none" stroke="currentColor" stroke-width="1.5" stroke-linecap="round" stroke-linejoin="round"
      d="M22 10.5l-10-5L2 10.5l10 5 10-5z"/>
    <path fill="none" stroke="currentColor" stroke-width="1.5" stroke-linecap="round" stroke-linejoin="round"
      d="M6 12.5v4l6 3 6-3v-4"/>
  </symbol>

  <!-- Partnership / handshake -->
  <symbol id="icon-partnership" viewBox="0 0 24 24">
    <path fill="none" stroke="currentColor" stroke-width="1.5" stroke-linecap="round" stroke-linejoin="round"
      d="M19 14c1.49-1.46 3-3.21 3-5.5A5.5 5.5 0 0016.5 3c-1.76 0-3 .5-4.5 2-1.5-1.5-2.74-2-4.5-2A5.5 5.5 0 002 8.5c0 2.29 1.51 4.04 3 5.5L12 21l7-7z"/>
  </symbol>

  <!-- Platform / institution -->
  <symbol id="icon-platform" viewBox="0 0 24 24">
    <rect x="2" y="3" width="9" height="9" rx="1" fill="none" stroke="currentColor" stroke-width="1.5"/>
    <rect x="13" y="3" width="9" height="9" rx="1" fill="none" stroke="currentColor" stroke-width="1.5"/>
    <rect x="2" y="14" width="9" height="7" rx="1" fill="none" stroke="currentColor" stroke-width="1.5"/>
    <rect x="13" y="14" width="9" height="7" rx="1" fill="none" stroke="currentColor" stroke-width="1.5"/>
  </symbol>

  <!-- Warning / alert -->
  <symbol id="icon-warning" viewBox="0 0 24 24">
    <path fill="none" stroke="currentColor" stroke-width="1.5" stroke-linecap="round" stroke-linejoin="round"
      d="M10.29 3.86L1.82 18a2 2 0 001.71 3h16.94a2 2 0 001.71-3L13.71 3.86a2 2 0 00-3.42 0v0z"/>
    <line x1="12" y1="9" x2="12" y2="13" stroke="currentColor" stroke-width="1.5" stroke-linecap="round"/>
    <circle cx="12" cy="17" r="0.5" fill="currentColor"/>
  </symbol>

  <!-- Academic warning -->
  <symbol id="icon-warning-academic" viewBox="0 0 24 24">
    <path fill="none" stroke="currentColor" stroke-width="1.5" stroke-linecap="round" stroke-linejoin="round"
      d="M12 22c5.523 0 10-4.477 10-10S17.523 2 12 2 2 6.477 2 12s4.477 10 10 10z"/>
    <path fill="none" stroke="currentColor" stroke-width="1.5" stroke-linecap="round" stroke-linejoin="round"
      d="M12 8v4M12 16h.01"/>
  </symbol>

  <!-- Psychological warning -->
  <symbol id="icon-warning-psych" viewBox="0 0 24 24">
    <path fill="none" stroke="currentColor" stroke-width="1.5" stroke-linecap="round" stroke-linejoin="round"
      d="M12 2a10 10 0 1010 10A10 10 0 0012 2z"/>
    <path fill="none" stroke="currentColor" stroke-width="1.5" stroke-linecap="round" stroke-linejoin="round"
      d="M12 6v6l4 2"/>
  </symbol>

  <!-- Employment warning -->
  <symbol id="icon-warning-job" viewBox="0 0 24 24">
    <rect x="2" y="7" width="20" height="14" rx="1" fill="none" stroke="currentColor" stroke-width="1.5"/>
    <path fill="none" stroke="currentColor" stroke-width="1.5" stroke-linecap="round" stroke-linejoin="round"
      d="M16 7V5a2 2 0 00-2-2h-4a2 2 0 00-2 2v2"/>
    <circle cx="12" cy="14" r="2" fill="none" stroke="currentColor" stroke-width="1.5"/>
  </symbol>

  <!-- Funding warning -->
  <symbol id="icon-warning-funding" viewBox="0 0 24 24">
    <circle cx="12" cy="12" r="10" fill="none" stroke="currentColor" stroke-width="1.5"/>
    <line x1="12" y1="8" x2="12" y2="12" stroke="currentColor" stroke-width="1.5" stroke-linecap="round"/>
    <line x1="12" y1="16" x2="12.01" y2="16" stroke="currentColor" stroke-width="1.5" stroke-linecap="round"/>
  </symbol>

  <!-- QR code icon -->
  <symbol id="icon-qr" viewBox="0 0 24 24">
    <rect x="3" y="3" width="7" height="7" rx="1" fill="none" stroke="currentColor" stroke-width="1.5"/>
    <rect x="14" y="3" width="7" height="7" rx="1" fill="none" stroke="currentColor" stroke-width="1.5"/>
    <rect x="3" y="14" width="7" height="7" rx="1" fill="none" stroke="currentColor" stroke-width="1.5"/>
    <line x1="14" y1="14" x2="14" y2="14" stroke="currentColor" stroke-width="4" stroke-linecap="round"/>
    <line x1="17" y1="17" x2="21" y2="21" stroke="currentColor" stroke-width="1.5" stroke-linecap="round"/>
    <line x1="21" y1="17" x2="17" y2="21" stroke="currentColor" stroke-width="1.5" stroke-linecap="round"/>
  </symbol>

  <!-- Clock -->
  <symbol id="icon-clock" viewBox="0 0 24 24">
    <circle cx="12" cy="12" r="10" fill="none" stroke="currentColor" stroke-width="1.5"/>
    <polyline points="12,6 12,12 16,14" fill="none" stroke="currentColor" stroke-width="1.5" stroke-linecap="round" stroke-linejoin="round"/>
  </symbol>

  <!-- Target / goal -->
  <symbol id="icon-target" viewBox="0 0 24 24">
    <circle cx="12" cy="12" r="10" fill="none" stroke="currentColor" stroke-width="1.5"/>
    <circle cx="12" cy="12" r="6" fill="none" stroke="currentColor" stroke-width="1.5"/>
    <circle cx="12" cy="12" r="2" fill="none" stroke="currentColor" stroke-width="1.5"/>
  </symbol>

  <!-- Arrow up -->
  <symbol id="icon-arrow-up" viewBox="0 0 24 24">
    <polyline points="18,15 12,9 6,15" fill="none" stroke="currentColor" stroke-width="1.5" stroke-linecap="round" stroke-linejoin="round"/>
  </symbol>

  <!-- Arrow down -->
  <symbol id="icon-arrow-down" viewBox="0 0 24 24">
    <polyline points="6,9 12,15 18,9" fill="none" stroke="currentColor" stroke-width="1.5" stroke-linecap="round" stroke-linejoin="round"/>
  </symbol>
</svg>
